<svg width="139" height="46" fill="none" xmlns="http://www.w3.org/2000/svg"><path d="M18.746 16.615v4.757l11.44-.005c-.352 2.623-1.242 4.544-2.595 5.888-1.668 1.658-4.272 3.483-8.845 3.483-7.05 0-12.563-5.646-12.563-12.652 0-7.006 5.514-12.652 12.563-12.652 3.805 0 6.582 1.486 8.632 3.397l3.377-3.356C27.896 2.76 24.092.678 18.75.678 9.097.678.98 8.492.98 18.086c0 9.594 8.117 17.409 17.771 17.409 5.209 0 9.14-1.699 12.218-4.883 3.163-3.144 4.145-7.557 4.145-11.126 0-1.061-.081-2.042-.24-2.87H18.747zM115.239 34.812V1.957h-4.832v32.855h4.832z" fill="#2B2A35"/><path fill-rule="evenodd" clip-rule="evenodd" d="M48.353 35.5c6.236 0 11.318-4.757 11.318-11.212 0-6.5-5.082-11.211-11.318-11.211-6.235 0-11.317 4.71-11.317 11.211 0 6.455 5.082 11.212 11.317 11.212zm0-18.005c3.419 0 6.364 2.76 6.364 6.793 0 3.988-2.945 6.794-6.364 6.794-3.418 0-6.362-2.8-6.362-6.794 0-4.033 2.944-6.793 6.362-6.793zM72.768 35.5c6.236 0 11.317-4.757 11.317-11.212 0-6.5-5.081-11.211-11.317-11.211S61.45 17.793 61.45 24.288c0 6.455 5.081 11.212 11.317 11.212zm0-18.005c3.418 0 6.363 2.76 6.363 6.793 0 3.988-2.945 6.794-6.363 6.794-3.418 0-6.363-2.8-6.363-6.794 0-4.033 2.945-6.793 6.363-6.793zM107.482 13.76v20.122c0 8.28-4.913 11.661-10.722 11.661-5.468 0-8.759-3.634-10-6.606l4.313-1.784c.769 1.824 2.65 3.978 5.682 3.978 3.718 0 6.022-2.28 6.022-6.572v-1.612h-.173c-1.109 1.36-3.245 2.548-5.94 2.548-5.641 0-10.81-4.883-10.81-11.166 0-6.329 5.169-11.252 10.81-11.252 2.69 0 4.826 1.188 5.94 2.507h.173V13.76h4.705zm-4.354 10.569c0-3.948-2.65-6.834-6.022-6.834-3.418 0-6.282 2.886-6.282 6.834 0 3.907 2.864 6.753 6.282 6.753 3.372 0 6.022-2.846 6.022-6.753zM134.068 27.978l3.845 2.548c-1.241 1.825-4.232 4.969-9.399 4.969-6.409 0-11.195-4.924-11.195-11.212 0-6.667 4.827-11.211 10.64-11.211 5.855 0 8.718 4.63 9.654 7.132l.514 1.274-15.081 6.207c1.155 2.25 2.95 3.397 5.468 3.397 2.523 0 4.272-1.233 5.554-3.104zm-11.836-4.033l10.081-4.16c-.554-1.4-2.222-2.376-4.186-2.376-2.518 0-6.022 2.209-5.895 6.536z" fill="#2B2A35"/></svg>