<svg width="172" height="52" fill="none" xmlns="http://www.w3.org/2000/svg"><path fill-rule="evenodd" clip-rule="evenodd" d="M26.417.535C12.292.535.84 11.985.84 26.11c0 14.126 11.451 25.576 25.576 25.576s25.575-11.45 25.575-25.576c0-14.124-11.45-25.575-25.575-25.575zm15.128 22.673c-8.244-4.895-21.842-5.346-29.712-2.957a2.392 2.392 0 11-1.389-4.578c9.034-2.742 24.052-2.212 33.543 3.421a2.391 2.391 0 11-2.442 4.114zm-.27 7.252a1.995 1.995 0 01-2.742.656c-6.873-4.224-17.354-5.448-25.485-2.98a1.997 1.997 0 01-2.489-1.328 1.997 1.997 0 011.33-2.487c9.289-2.819 20.836-1.454 28.73 3.397a1.994 1.994 0 01.656 2.742zm-3.13 6.964c-.459.753-1.44.99-2.19.53-6.007-3.67-13.566-4.5-22.468-2.466a1.593 1.593 0 11-.71-3.107c9.742-2.227 18.099-1.269 24.84 2.85.752.46.988 1.442.529 2.193z" fill="#2B2A35"/><path d="M70.422 24.132c-4.415-1.053-5.202-1.792-5.202-3.345 0-1.467 1.382-2.454 3.436-2.454 1.991 0 3.965.75 6.035 2.293a.29.29 0 00.41-.064l2.156-3.04a.29.29 0 00-.055-.393c-2.464-1.977-5.238-2.938-8.48-2.938-4.769 0-8.1 2.86-8.1 6.955 0 4.39 2.874 5.944 7.838 7.144 4.226.974 4.94 1.79 4.94 3.247 0 1.615-1.443 2.62-3.764 2.62-2.577 0-4.68-.87-7.032-2.906a.304.304 0 00-.212-.069.287.287 0 00-.198.102l-2.418 2.877a.287.287 0 00.029.401c2.736 2.443 6.102 3.734 9.733 3.734 5.138 0 8.458-2.808 8.458-7.153 0-3.671-2.194-5.702-7.574-7.01z" fill="#2B2A35"/><path fill-rule="evenodd" clip-rule="evenodd" d="M84.06 22.445c1.507-1.797 3.334-2.674 5.56-2.674 4.138 0 8.327 3.186 8.327 9.277 0 6.088-4.189 9.274-8.326 9.274-2.227 0-4.054-.826-5.56-2.517V42.9c0 .16-.13.29-.29.29h-3.953a.29.29 0 01-.29-.29V20.422c0-.16.13-.29.29-.29h3.953c.16 0 .29.13.29.29v2.023zm4.645 11.867c2.735 0 4.645-2.164 4.645-5.264 0-3.051-1.954-5.265-4.645-5.265-2.704 0-4.743 2.262-4.743 5.265 0 3.002 2.04 5.264 4.743 5.264zM108.684 19.771c-5.329 0-9.504 4.103-9.504 9.342 0 5.183 4.147 9.243 9.439 9.243 5.348 0 9.535-4.09 9.535-9.308 0-5.203-4.159-9.277-9.47-9.277zm0 14.573c-2.834 0-4.971-2.277-4.971-5.296 0-3.033 2.063-5.233 4.906-5.233 2.853 0 5.004 2.277 5.004 5.298 0 3.032-2.077 5.231-4.939 5.231z" fill="#2B2A35"/><path d="M125.184 20.155h4.351a.29.29 0 01.288.29v3.398a.29.29 0 01-.288.29h-4.351v8.173c0 1.29.566 1.866 1.834 1.866.823 0 1.559-.177 2.321-.56a.29.29 0 01.419.26v3.236c0 .103-.056.2-.146.25-1.109.63-2.286.922-3.704.922-3.488 0-5.257-1.801-5.257-5.355v-8.793h-1.901a.29.29 0 01-.288-.29v-3.398c0-.159.129-.29.288-.29h1.901v-4.448c0-.16.131-.29.291-.29h3.953c.16 0 .289.13.289.29v4.449zM144.694 20.162v-.547c0-1.607.616-2.324 1.998-2.324.824 0 1.487.164 2.228.411a.288.288 0 00.38-.275v-3.332a.29.29 0 00-.204-.277c-.783-.233-1.786-.473-3.286-.473-3.653 0-5.583 2.057-5.583 5.945v.837h-1.899c-.16 0-.291.13-.291.29v3.415c0 .16.131.29.291.29h1.899v13.563c0 .16.129.29.288.29h3.954c.16 0 .29-.13.29-.29V24.122h3.692l5.655 13.559c-.642 1.425-1.273 1.708-2.135 1.708-.697 0-1.43-.208-2.181-.618a.296.296 0 00-.23-.022.294.294 0 00-.171.156l-1.34 2.94a.288.288 0 00.124.374c1.399.758 2.663 1.082 4.223 1.082 2.92 0 4.534-1.36 5.956-5.02l6.86-17.724a.29.29 0 00-.268-.395h-4.117a.292.292 0 00-.274.194L156.337 32.4l-4.619-12.052a.288.288 0 00-.27-.186h-6.754zM131.951 20.151h3.954c.16 0 .29.13.29.29v17.25c0 .16-.13.29-.29.29h-3.954a.29.29 0 01-.289-.29v-17.25c0-.16.129-.29.289-.29zM133.948 12.288a2.836 2.836 0 102.836 2.835 2.835 2.835 0 00-2.836-2.835z" fill="#2B2A35"/><path fill-rule="evenodd" clip-rule="evenodd" d="M170.007 24.279l-.787-1.102c.401-.116.678-.409.678-.887 0-.585-.447-.932-1.125-.932h-1.302v2.92h.555v-1.01h.609l.709 1.01h.663zm-1.981-2.42h.724c.362 0 .578.161.578.462 0 .285-.216.462-.578.462h-.724v-.924z" fill="#2B2A35"/><path fill-rule="evenodd" clip-rule="evenodd" d="M165.806 22.906a2.772 2.772 0 002.783 2.783 2.798 2.798 0 002.797-2.799 2.771 2.771 0 00-2.783-2.78 2.797 2.797 0 00-2.797 2.796zm.293 0c0-1.387 1.079-2.52 2.504-2.52 1.419 0 2.49 1.118 2.49 2.505 0 1.388-1.079 2.52-2.504 2.52-1.419 0-2.49-1.118-2.49-2.505z" fill="#2B2A35"/></svg>