<svg width="65" height="65" fill="none" xmlns="http://www.w3.org/2000/svg"><path d="M.395.535V64.85H64.71V.535H.395zm61.413 28.977c-.288 2.308-1.849 6.587-2.678 8.298-2.225 4.583-5.198 8.105-10.925 8.105-3.06 0-5.576-.977-7.047-2.85-2.156 1.887-4.822 2.876-7.693 2.876-2.215 0-4.169-.638-5.66-1.82-1.647 1.16-3.867 1.807-6.327 1.807-2.056 0-3.906-.565-5.352-1.609-1.603 1.064-3.701 1.592-6.165 1.533-4.099-.096-6.929-2.696-7.01-6.47-.108-5.014 4.115-14.193 6.106-17.371 1.489-2.447 3.762-3.763 6.548-3.763 3.023 0 4.12.863 4.659 1.963 2.333-1.982 5.425-2.096 7.627-2.096 2.43 0 3.955.647 5.252 1.678 1.79-1.076 3.845-1.633 6.295-1.633 3.128 0 5.454.727 7.075 2.331 1.892-1.573 4.26-2.292 6.912-2.292 3.505 0 5.811 1.265 7.166 3.15 1.91 2.657 1.568 5.334 1.217 8.163zm-8.417-9.727c-3.324 0-5.62 1.318-7.175 3.158a4.114 4.114 0 00-.743-1.11c-1.272-1.439-3.32-2.111-6.065-2.111-2.682 0-4.918.838-6.472 2.158-.806-1.311-2.728-2.18-5.045-2.18-3.03 0-6.33.43-8.287 3.583-.047-1.136-.15-1.736-.787-2.413-.777-.822-2.032-1.035-3.256-1.035-2.23 0-3.906.973-5.113 2.955-1.75 2.797-5.995 11.999-5.9 16.455.063 2.88 1.993 4.955 5.45 5.036 2.7.063 4.819-.657 6.168-2.019 1.209 1.315 3.054 2.085 5.262 2.085 2.458 0 4.931-.739 6.392-2.351 1.231 1.512 3.167 2.39 5.658 2.38 3.255-.017 6.115-1.56 7.982-3.927 1.025 2.79 3.624 3.898 6.463 3.898 6.221 0 8.954-4.277 11.23-11.041.513-1.524 1.197-4.068 1.31-6.205.189-3.556-1.314-7.316-7.072-7.316zm-14.725 6.03c-.89 0-1.472.564-1.905 1.171-.954 1.34-3.021 6.708-3.342 8.913-.22 1.51.432 1.82 1.144 1.82 1.143 0 2.425-1.21 2.863-3.208 0 0-2.177-.053-1.576-1.984.583-1.872 1.689-2.28 3.523-2.353 3.611-.149 3.255 2.522 2.966 3.943-.94 4.618-4.226 8.329-8.876 8.329-3.184 0-5.161-1.76-5.161-5.007 0-2.314 1.148-5.946 2.057-8.072 1.937-4.52 3.967-7.688 9.141-7.688 3.103 0 5.552 1.116 5.193 4.024-.264 2.134-1.331 3.387-3.271 3.537-.544.043-2.764-.012-2.027-2.113.257-.736.363-1.313-.73-1.313zM22.48 33.816a33.17 33.17 0 00-.941 3.062c1.056-.263 1.847-.448 3.205-.415 1.546.037 2.535.679 2.535 1.96 0 3.098-3.425 4.008-5.803 4.008-2.61 0-4.903-1.486-4.903-4.339 0-3.347 1.813-8.42 3.516-11.798 2.09-4.152 4.227-4.704 7.904-4.704 1.618 0 3.48.691 3.48 2.217 0 2.118-1.792 2.923-3.57 3.025-.759.042-1.926.085-2.626.036 0 0-.59.902-1.22 2.507 3.29-.463 4.687.282 4.132 2.188-.75 2.57-2.98 2.74-5.709 2.253zm35.724-4.183c-.547 2.722-1.778 5.943-3.112 8.345-2.18 3.918-4.827 4.465-7.136 4.438-2.31-.027-4.915-.882-4.934-4.445-.014-2.557 1.09-6.172 2.026-8.537 1.634-4.292 3.303-7.792 8.579-7.729 6.153.073 5.055 5.545 4.577 7.928zM11.999 36.79c3.219-.56 4.03.604 3.927 1.682-.302 3.225-3.263 3.947-5.832 3.886-1.864-.042-3.54-.897-3.587-3.062-.081-3.785 3.78-12.542 5.596-15.446.84-1.378 1.863-2.057 3.494-2.057 1.546 0 1.928.792 1.905 1.742-.06 2.536-4.157 10.243-5.502 13.255zm41.818-9.839c-.065 1.643-2.473 8.213-3.33 9.663-.37.63-.788 1.149-1.541 1.149-.656-.002-.95-.467-.967-1-.048-1.482 2.672-8.916 3.604-10.125.414-.638.874-.74 1.402-.734.772.01.852.567.832 1.047z" fill="#2B2A35"/></svg>