<svg width="119" height="44" viewBox="0 0 119 44" fill="none" xmlns="http://www.w3.org/2000/svg">
<path fill-rule="evenodd" clip-rule="evenodd" d="M117.678 0.934681C117.287 1.03265 30.1443 24.6484 30.1443 24.6484C28.4623 25.1205 26.7443 25.3652 25.0723 25.374C18.3749 25.4135 12.4156 21.6963 12.4637 13.8626C12.4832 10.7969 13.4218 7.10146 15.5955 2.75332C7.91488 11.7733 0.549442 22.9602 0.475375 31.3212C0.447046 34.4672 1.45094 37.2139 3.86005 39.2951C7.32736 42.2891 11.1467 43.3461 14.9483 43.352C20.5034 43.3597 26.0195 41.1188 30.3387 39.3908C37.613 36.4818 118.018 1.5647 118.018 1.5647C118.794 1.17665 118.648 0.691822 117.678 0.934681Z" fill="#2B2A35"/>
</svg>
