<svg width="56" height="74" fill="none" xmlns="http://www.w3.org/2000/svg"><path d="M18.946 37.726zM27.416 18.184c.159.29 12.78 29.078 12.768 29.053h-8.34c0-.039-.757-1.86-1.606-3.898-1.088-2.614-2.325-5.585-2.302-5.613h-8.99c.1-.023 8.443-19.29 8.47-19.542zM27.416 18.184v-.002.002zM.314.358zM.379 47.173C.379 47.107.334.39.314.358h19.544C19.915.346.444 47.234.378 47.173zM54.93 47.197C54.944 47.348 34.737.358 34.737.358h20.209l-.014 46.839z" fill="#2B2A35"/><path fill-rule="evenodd" clip-rule="evenodd" d="M.87 73.15L5.21 54.57h3.04l4.342 18.58H9.429l-.744-3.477H4.756l-.723 3.477H.869zm5.85-13.59l-1.364 6.955h2.73L6.72 59.56zM17.019 59.162c1.096 0 1.612.398 2.398 1.433V54.57h2.791v18.58h-2.502l-.082-1.62h-.104c-.434 1.276-1.364 2.124-2.543 2.124-2.791 0-3.97-3.264-3.97-7.299 0-3.45.869-7.193 4.012-7.193zm-1.117 7.247c0 1.751.228 4.565 1.82 4.565 1.53 0 1.819-2.522 1.819-4.565 0-3.77-1.075-4.513-1.82-4.513-.764 0-1.819.743-1.819 4.513zM24.174 66.382c0-4.167 1.448-7.22 4.735-7.22 3.267 0 4.735 3.053 4.735 7.22 0 4.22-1.488 7.272-4.735 7.272-3.266 0-4.735-3.052-4.735-7.272zm2.895 0c0 3.955.993 4.565 1.84 4.565 1.2 0 1.84-1.114 1.84-4.565 0-3.663-.765-4.513-1.84-4.513-.848 0-1.84.638-1.84 4.513zM38.377 60.755c.579-1.327 1.675-1.593 2.378-1.593 2.956 0 4.032 3.106 4.032 7.193 0 4.061-1.054 7.3-4.012 7.3-1.22 0-1.944-.611-2.543-2.124h-.082l-.083 1.62h-2.502V54.57h2.812v6.184zm-.124 5.627c0 1.752.227 4.565 1.82 4.565 1.529 0 1.819-2.521 1.819-4.565 0-3.77-1.075-4.513-1.82-4.513-.764 0-1.819.744-1.819 4.513zM51.074 59.162c1.862 0 4.488 1.036 4.488 7.486v.742H49.11c0 3.186 1.096 3.557 1.882 3.557.64 0 1.302-.185 1.572-1.698h2.812c-.704 4.088-2.978 4.406-4.508 4.406-1.716 0-4.652-.638-4.652-7.273 0-4.62 1.902-7.22 4.858-7.22zm-.082 2.707c-1.592 0-1.861 2.257-1.882 3.266h3.556c-.082-2.734-.744-3.266-1.674-3.266z" fill="#2B2A35"/></svg>