<svg width="133" height="41" fill="none" xmlns="http://www.w3.org/2000/svg"><path d="M84.052 16.421c2.581-.06 5.312.326 7.656 1.644.53.297.672.738.713 1.17v3.195c0 .44-.482.95-.988.685-4.132-2.165-9.614-2.4-14.183.026-.467.25-.955-.254-.955-.694V19.41c0-.486.008-1.317.5-2.059l8.054-11.556-7.013-.001c-.43 0-.773-.306-.776-.754V2.044a.74.74 0 01.759-.759l13.424-.002c.429.001.773.314.774.757l-.001 2.57c-.003.43-.367.992-1.01 1.885l-6.954 9.926zM39.368 4.78c.99-2.647 3.24-3.882 5.642-3.882 1.715 0 3.583.706 4.726 2.294 1.11 1.509 1.075 3.599 1.041 5.58-.005.335-.01.666-.01.991l-.004 13.227c0 .418-.353.754-.788.754h-4.08a.767.767 0 01-.733-.753V11.88c0-.17.002-.39.006-.638.013-1.044.034-2.611-.12-3.288-.305-1.411-1.22-1.808-2.402-1.808-.991 0-2.02.661-2.44 1.72-.388.978-.385 2.56-.382 3.736V22.99c0 .418-.352.754-.787.754h-4.079a.767.767 0 01-.733-.753l-.004-11.11c0-.237.004-.486.008-.74.036-2.26.08-5.039-2.523-5.039-2.831 0-2.826 3.117-2.822 5.514v.265l-.001 11.11c0 .417-.353.753-.788.753h-4.083a.77.77 0 01-.73-.69l.002-20.959c0-.42.353-.755.788-.755h3.803a.77.77 0 01.743.703V4.78h.076C29.685 2.133 31.554.9 34.069.9c2.554 0 4.155 1.234 5.299 3.88z" fill="#2B2A35"/><path fill-rule="evenodd" clip-rule="evenodd" d="M94.385 12.498c0-6.527 3.279-11.6 9.187-11.6 6.062 0 9.339 5.205 9.339 11.82 0 6.395-3.62 11.468-9.339 11.468-5.946 0-9.187-5.204-9.187-11.688zm6.024-.573c-.001 2.593-.002 7.939 3.163 7.939 3.165 0 3.317-4.411 3.317-7.101 0-1.764-.076-3.882-.61-5.558-.457-1.455-1.373-2.028-2.668-2.028-3.012 0-3.202 4.101-3.202 6.66v.088z" fill="#2B2A35"/><path d="M126.903.898c1.831 0 3.622.662 4.766 2.47 1.069 1.677 1.069 4.498 1.069 6.527v13.19c-.047.371-.38.66-.783.66h-4.094a.771.771 0 01-.728-.66V11.704l.003-.553c.02-2.242.045-5.093-2.557-5.093-.992 0-1.906.662-2.363 1.676-.572 1.28-.649 2.559-.649 3.97V22.99c-.006.417-.359.754-.795.754h-4.068c-.411-.027-.734-.351-.734-.754l-.006-20.967c.035-.382.373-.684.785-.684h3.788c.356.017.65.262.724.587v3.206h.078c1.143-2.867 2.744-4.235 5.564-4.235z" fill="#2B2A35"/><path fill-rule="evenodd" clip-rule="evenodd" d="M72.09 9.757v6.363c0 1.708.633 2.56 1.3 3.457.08.108.161.216.241.327.26.372.32.814-.013 1.085-.835.7-2.317 1.986-3.132 2.712l-.01-.01a.846.846 0 01-.964.096c-1.15-.956-1.5-1.476-2.032-2.266-.095-.142-.196-.292-.309-.455-2.242 2.284-3.83 2.968-6.733 2.968-3.438 0-6.112-2.122-6.112-6.364 0-3.316 1.795-5.57 4.355-6.675 1.872-.822 4.372-1.076 6.531-1.295.396-.04.78-.079 1.147-.12v-.53l.002-.307c.007-.9.015-1.902-.498-2.655-.497-.751-1.452-1.061-2.293-1.061-1.557 0-2.941.799-3.282 2.453-.071.367-.339.732-.71.75l-3.957-.428c-.334-.075-.706-.343-.61-.854.91-4.801 5.246-6.252 9.133-6.252 1.986 0 4.584.53 6.15 2.033 1.826 1.705 1.813 3.934 1.799 6.376-.002.216-.003.433-.003.652zm-9.321 10.166c1.145 0 2.177-.706 2.827-1.856.767-1.354.765-2.625.764-4.127v-1.089c-2.955 0-6.075.634-6.075 4.111 0 1.767.917 2.961 2.484 2.961zM18.555 9.757v6.363c0 1.708.634 2.56 1.3 3.456.08.108.161.217.241.328.26.372.319.814-.013 1.085-.834.7-2.317 1.986-3.132 2.712l-.01-.01a.846.846 0 01-.964.096c-1.15-.955-1.5-1.475-2.031-2.264-.096-.143-.197-.293-.31-.457-2.242 2.284-3.83 2.968-6.733 2.968-3.439 0-6.112-2.122-6.112-6.364 0-3.316 1.795-5.57 4.354-6.675 1.873-.822 4.373-1.076 6.533-1.295.395-.04.78-.079 1.147-.12v-.53l.001-.308c.008-.9.015-1.901-.498-2.654-.497-.751-1.452-1.061-2.292-1.061-1.557 0-2.942.799-3.282 2.453-.07.367-.34.732-.71.75l-3.958-.428c-.334-.075-.706-.343-.609-.854.91-4.801 5.246-6.252 9.132-6.252 1.986 0 4.584.53 6.151 2.033 1.825 1.705 1.812 3.934 1.798 6.376-.002.216-.003.433-.003.652zM9.234 19.923c1.146 0 2.178-.706 2.827-1.856.767-1.354.766-2.625.764-4.125V12.85c-2.954 0-6.074.634-6.074 4.111 0 1.767.917 2.961 2.483 2.961z" fill="#2B2A35"/><path d="M55.103 35.408c8.496 0 17.837-1.762 26.431-5.408 1.297-.55 2.383.855 1.115 1.791-7.666 5.658-18.782 8.667-28.352 8.667-13.414 0-25.492-4.957-34.633-13.211-.717-.648-.077-1.534.786-1.032 9.861 5.739 22.057 9.193 34.653 9.193z" fill="#2B2A35"/><path d="M76.697 26.813c4.387-3.083 11.577-2.192 12.413-1.162.843 1.043-.22 8.25-4.332 11.692-.633.529-1.235.246-.954-.452l.006-.014c.927-2.319 2.989-7.475 2.01-8.728-.977-1.25-6.438-.6-8.924-.303l-.03.004c-.748.09-.864-.563-.19-1.038z" fill="#2B2A35"/></svg>