<svg width="132" height="37" viewBox="0 0 132 37" fill="none" xmlns="http://www.w3.org/2000/svg">
<path d="M87.6465 0.851318H82.1264V31.7238C87.1431 31.8964 92.1386 32.1495 97.1139 32.4812V27.0421C93.9667 26.8322 90.8112 26.6542 87.6465 26.5069V0.851318ZM131.516 0.854441H125.452L121.455 10.1189L117.864 0.854441H111.891L118.31 17.4088L111.303 33.6492C113.241 33.8383 115.174 34.04 117.105 34.2532L121.18 24.8104L125.216 35.2196C127.318 35.4899 129.414 35.7719 131.507 36.0706L131.516 36.067L124.325 17.5206L131.516 0.854441ZM63.1775 31.454L68.6979 31.4528V18.8947H76.1811V13.4556H68.6979V6.34281H78.5879V0.854718H63.1775V31.454ZM42.5635 6.34244H48.3411V31.7774C50.178 31.708 52.0186 31.6508 53.8612 31.6026V6.34244H59.6385V0.854441H42.5635V6.34244ZM23.6911 33.3582C28.779 32.8959 33.8903 32.5148 39.0248 32.2191V26.7793C35.7442 26.969 32.473 27.1935 29.2113 27.4499V19.2152C31.3514 19.1939 34.1695 19.1286 36.6661 19.1597V13.7201C34.6716 13.7152 31.4659 13.7479 29.2113 13.7767V6.34281H39.0248V0.854718H23.6911V33.3582ZM12.8627 20.7837L5.67301 0.854441H0.426697V36.0713C2.26323 35.8099 4.10325 35.5595 5.94685 35.3194V16.1686L12.3397 34.5331C14.3504 34.2999 16.3647 34.0791 18.3829 33.8715V0.854441H12.8627V20.7837ZM101.665 32.8087C103.508 32.9497 105.348 33.101 107.186 33.2645V0.854441H101.665V32.8087Z" fill="#2B2A35"/>
</svg>
