<svg width="132" height="45" fill="none" xmlns="http://www.w3.org/2000/svg"><path d="M55.158 28.412h-6.056v9.613c0 5.964 3.26 6.89 7.834 6.89 4.946 0 7.502-2.26 7.502-7.557v-8.28c0-3.92-2.98-6.742-5.521-9.15-1.89-1.79-3.537-3.351-3.537-4.963V6.547c0-1.111.625-1.376 1.32-1.376.667 0 1.237.21 1.237 1.376V15.8h6.001V7.075c0-4.593-2.5-6.224-7.28-6.224-5.223 0-7.5 2.335-7.5 6.668v7.39c0 4.348 2.943 7.098 5.474 9.462 1.909 1.782 3.582 3.345 3.582 5.208v9.224c0 1.167-.694 1.5-1.389 1.5-.75 0-1.667-.166-1.667-1.528V28.412zM.094 1.136V44.7h6V23.585h3.05V44.7h6.002V1.136H9.144V19.19h-3.05V1.136h-6zM29.311 1.136H18.15V44.7h11.162v-4.394H24.15V23.585h5.161V19.19H24.15V5.53h5.161V1.136z" fill="#2B2A35"/><path fill-rule="evenodd" clip-rule="evenodd" d="M43.827 21.298a4.226 4.226 0 01-.296-.158c.038-.052.162-.106.343-.185.888-.386 3.13-1.362 3.13-5.538V7.11c0-3.76-2.222-5.974-6.085-5.974h-9.001V44.7h6.001V23.585h1.612c.843 0 1.166.787 1.166 2.333v13.058c0 2.473.5 4.724 1.111 5.724h6.002c-.362-.556-.89-2.769-.89-5.14V25.89c.013-3.025-2.182-4.132-3.093-4.592zm-4.352-2.108H37.92V5.53h1.75c.686 0 1.111.542 1.111 1.302V17.75c0 .805-.444 1.44-1.305 1.44z" fill="#2B2A35"/><path d="M66.322 44.7V1.136h6V19.19h3.05V1.136h6.001V44.7h-6.001V23.585h-3.05V44.7h-6zM95.54 1.136H84.376V44.7H95.54v-4.394h-5.16V23.585h5.16V19.19h-5.16V5.53h5.16V1.136zM106.773 44.7V23.585l4.828-22.45h-4.446l-2.889 14.781-2.556-14.78h-6.001l5.063 22.449V44.7h6.001zM117.059 1.136l-2.333 8.669h-3.612l1.889-8.67h4.056zM116.664 28.412h6.057v10.363c0 1.362.916 1.528 1.667 1.528.694 0 1.388-.333 1.388-1.5v-9.224c0-1.863-1.673-3.426-3.581-5.208-2.531-2.364-5.475-5.114-5.475-9.461V7.52c0-4.334 2.277-6.669 7.501-6.669 4.779 0 7.279 1.63 7.279 6.224v8.724h-6.001V6.547c0-1.167-.57-1.376-1.236-1.376-.695 0-1.32.265-1.32 1.376v8.418c0 1.612 1.647 3.172 3.537 4.963 2.541 2.408 5.52 5.23 5.52 9.15v8.28c0 5.297-2.556 7.557-7.501 7.557-4.575 0-7.835-.926-7.835-6.89v-9.613z" fill="#2B2A35"/><path fill-rule="evenodd" clip-rule="evenodd" d="M112.277 42.93h-.388v1.012h-.366v-2.354h.91c.56 0 .824.221.824.673 0 .426-.27.603-.619.641l.673 1.04h-.393l-.641-1.013zm.096-1.046h-.484v.749h.382c.323 0 .62-.016.62-.388 0-.312-.27-.36-.518-.36z" fill="#2B2A35"/><path fill-rule="evenodd" clip-rule="evenodd" d="M112.307 40.77c-1.103 0-2.029.866-2.029 2.003 0 1.158.926 2.025 2.029 2.025 1.099 0 2.02-.867 2.02-2.025a2.003 2.003 0 00-2.02-2.003zm0 .296c.932 0 1.654.743 1.654 1.707 0 .985-.722 1.728-1.654 1.728-.942 0-1.664-.743-1.664-1.728 0-.964.722-1.707 1.664-1.707z" fill="#2B2A35"/></svg>